<svg width="49" height="54" viewBox="0 0 49 54" fill="none" xmlns="http://www.w3.org/2000/svg">
<g clip-path="url(#clip0_45_199)">
<path d="M34.2705 11.094H20.9258V14.1709H34.2705V11.094Z" fill="#DC1D1D"/>
<path d="M34.2705 18.8034H20.9258V21.8803H34.2705V18.8034Z" fill="#DC1D1D"/>
<path d="M20.9256 26.5128H6.28271V29.5897H20.9256V26.5128Z" fill="#DC1D1D"/>
<path d="M25.2355 29.2992L27.4164 35.5214C27.6241 35.5043 27.8491 35.5385 28.0741 35.5898C28.7491 35.7436 29.4242 36.1709 29.9953 36.7863L33.007 34.1709C32.4704 33.5385 32.1243 32.8205 32.055 32.1368C32.0377 31.8974 32.0377 31.6752 32.0724 31.4701L26.1356 28.5128C26.1183 28.4274 26.0663 28.3419 25.9971 28.2564C25.8067 28.0513 25.5125 27.9829 25.2702 28.0855L28.0395 31.2137C28.2299 31.0769 28.4722 30.9915 28.7318 30.9915C29.3896 30.9915 29.9261 31.5043 29.9261 32.1539C29.9261 32.547 29.7357 32.8889 29.4242 33.1111C29.1645 33.3846 28.8011 33.5214 28.403 33.4701C27.7453 33.3846 27.2952 32.7863 27.3818 32.1539C27.4164 31.8974 27.5376 31.6752 27.6933 31.5043L24.924 28.3932C24.8028 28.6325 24.8201 28.9231 25.0105 29.1282C25.0798 29.1966 25.149 29.2479 25.2355 29.2992Z" fill="#DC1D1D"/>
<path d="M42.1114 43.0085C39.6363 39.9658 36.4515 37.4701 33.9072 34.547L30.2725 37.6923C32.886 40.5812 34.9803 44 37.6978 46.8376L42.1114 43.0085Z" fill="#DC1D1D"/>
<path d="M46.8191 44.6838C45.5902 43.2137 44.4998 42.2393 43.5132 41.7436C43.2709 41.6239 42.994 41.6581 42.8036 41.8291C42.7517 41.8804 42.6997 41.9487 42.6651 42.0171C42.5093 42.3248 42.6305 42.7009 42.9421 42.8718C43.7729 43.2821 44.7421 44.171 45.8499 45.4872C47.5461 47.5043 47.8403 49.1111 47.7192 49.9829C46.2306 48 44.7421 46.0342 43.2536 44.0513L38.5977 48.0855C40.3977 49.812 42.1978 51.5214 43.9806 53.2479C44.9671 54.188 46.5249 54.2735 47.4768 53.453C48.0134 52.9915 48.273 52.3077 48.273 51.6068C48.498 51.4188 48.6711 51.1453 48.8096 50.8376C49.2942 49.5727 49.0173 47.3162 46.8191 44.6838Z" fill="#DC1D1D"/>
<path d="M5.60791 48.5983C4.29248 48.5983 3.20205 47.5385 3.20205 46.2222V18.3248L13.5698 14.5812C14.4871 14.2564 15.2314 13.5727 15.6468 12.7009C16.0622 11.812 16.0968 10.8376 15.7679 9.91453L13.2582 3.16239H36.2437C37.5592 3.16239 38.6496 4.22222 38.6496 5.53846V35.7607C38.9438 36.0342 41.0728 38.1026 41.8516 38.8889V5.53846C41.8516 2.49573 39.3419 0 36.2437 0H10.9735C10.7831 0 10.61 0.034188 10.4196 0.102564C10.0562 0.239316 9.58884 0.786325 9.58884 0.786325L0.225009 16.4103C0.225009 16.4103 0 16.9231 0 17.2137V46.2222C0 49.265 2.50971 51.7607 5.60791 51.7607H36.261C36.988 51.7607 37.6803 51.6239 38.3207 51.3675L35.4302 48.5983H5.60791ZM10.6273 5.26496L12.7563 11.0085C12.8082 11.1624 12.7736 11.2821 12.739 11.3675C12.7043 11.453 12.6178 11.5556 12.462 11.6068L5.26174 14.2051L10.6273 5.26496Z" fill="#DC1D1D"/>
</g>
<defs>
<clipPath id="clip0_45_199">
<rect width="49" height="54" fill="white"/>
</clipPath>
</defs>
</svg>
