<svg width="59" height="54" viewBox="0 0 59 54" fill="none" xmlns="http://www.w3.org/2000/svg">
<g clip-path="url(#clip0_44_184)">
<path d="M31.2323 27.3568L38.0103 15.1057H33.6374L31.5014 0H23.2266L25.3626 15.1057H20.9897L31.2323 27.3568Z" fill="#DC1D1D"/>
<path d="M37.7915 23.8735C39.5911 23.8735 41.4748 25.0969 42.4166 26.7451H44.9058L44.6872 25.9635C43.9808 23.3468 41.4075 21.2398 38.952 21.2398L37.4888 23.8735H37.7915Z" fill="#DC1D1D"/>
<path d="M55.6697 28.8691H22.15C19.6945 28.8691 17.1212 30.9931 16.4148 33.5928L12.2102 48.7155C11.9411 48.2907 5.93678 27.8326 5.93678 27.8326C5.29767 25.6576 6.55907 23.8735 8.7455 23.8735H23.3778L16.2635 15.3606H1.96757C0.537976 15.3606 -0.302959 16.533 0.10069 17.9603L3.24579 29.4808L8.64459 49.2763C9.35098 51.893 11.9242 54 14.3798 54H48.7404C51.1959 54 53.7692 51.876 54.4755 49.2763L58.8316 33.6098C59.538 30.9931 58.1252 28.8691 55.6697 28.8691Z" fill="#DC1D1D"/>
</g>
<defs>
<clipPath id="clip0_44_184">
<rect width="59" height="54" fill="white"/>
</clipPath>
</defs>
</svg>
