<svg width="49" height="54" viewBox="0 0 49 54" fill="none" xmlns="http://www.w3.org/2000/svg">
<g clip-path="url(#clip0_45_189)">
<path d="M34.7159 12.4653C30.884 12.4653 27.264 13.9823 24.5572 16.7194C22.8287 18.4672 21.5895 20.5942 20.9209 22.9026L24.2963 25.887C24.8507 20.5612 29.3023 16.4061 34.7159 16.4061C37.6184 16.4061 40.3415 17.6098 42.2983 19.6873L39.8197 20.5447L47.1412 26.9917L49.0164 17.3624L46.2444 18.3188C45.0377 16.6864 43.4886 15.3014 41.7112 14.3121C39.5751 13.1084 37.1618 12.4653 34.7159 12.4653Z" fill="#DC1D1D"/>
<path d="M34.6345 37.5774C31.732 37.5774 29.0089 36.3737 27.0521 34.2962L29.5307 33.4388L22.2092 26.9918L20.334 36.6211L23.106 35.6647C24.3127 37.2971 25.8618 38.6821 27.6391 39.6715C29.7589 40.8751 32.1886 41.5017 34.6345 41.5017C38.4664 41.5017 42.0864 39.9847 44.7932 37.2476C46.5217 35.4999 47.7609 33.3728 48.4295 31.0644L45.0541 28.08C44.4997 33.4223 40.0318 37.5774 34.6345 37.5774Z" fill="#DC1D1D"/>
<path d="M39.3794 48.229C39.3794 49.5976 38.2869 50.7023 36.9334 50.7023H13.5015L16.0453 43.6617C16.3877 42.7053 16.3388 41.6831 15.9311 40.7597C15.5072 39.8363 14.7571 39.1438 13.8113 38.7976L3.26123 34.8898V5.77099C3.26123 4.40244 4.35374 3.29771 5.70715 3.29771H36.9334C38.2869 3.29771 39.3794 4.40244 39.3794 5.77099V8.95328C40.5045 9.25008 41.597 9.6458 42.6406 10.1569V5.77099C42.6406 2.5887 40.0805 0 36.9334 0H5.70715C2.56007 0 0 2.5887 0 5.77099V36.0275C0 36.3243 0.228286 36.8684 0.228286 36.8684L9.76739 53.1756C9.94676 53.4889 10.2403 53.7527 10.6153 53.8846C10.7947 53.9505 10.9903 53.9835 11.1697 53.9835H36.9334C40.0805 53.9835 42.6406 51.3948 42.6406 48.2125V43.7936C41.597 44.3047 40.5045 44.7169 39.3794 45.0137V48.229ZM12.996 42.524L10.8273 48.5093L5.36473 39.1603L12.7025 41.8809C12.8656 41.9469 12.9471 42.0458 12.9797 42.1447C13.0123 42.2272 13.0449 42.3591 12.996 42.524Z" fill="#DC1D1D"/>
<path d="M39.3794 31.3283C40.2599 30.3389 40.8469 29.0858 40.9937 27.6678L41.0589 27.1072L39.3957 25.6397V31.3283H39.3794Z" fill="#DC1D1D"/>
</g>
<defs>
<clipPath id="clip0_45_189">
<rect width="49" height="54" fill="white"/>
</clipPath>
</defs>
</svg>
