<svg width="43" height="54" viewBox="0 0 43 54" fill="none" xmlns="http://www.w3.org/2000/svg">
<g clip-path="url(#clip0_45_195)">
<path d="M37.2447 0H5.75526C2.58164 0 0 2.5887 0 5.77099V36.0275C0 36.3243 0.23021 36.8684 0.23021 36.8684L9.84971 53.1756C10.0306 53.4889 10.3266 53.7527 10.7048 53.8846C10.8857 53.9505 11.083 53.9835 11.2639 53.9835H37.2447C40.4184 53.9835 43 51.3948 43 48.2125V5.7545C43 2.5887 40.4184 0 37.2447 0ZM21.4918 6.44702H25.948V8.42565H21.4918V6.44702ZM21.4918 10.4043H25.948V12.3829H21.4918V10.4043ZM21.4918 14.3615H25.948V16.3402H21.4918V14.3615ZM21.4918 18.3188H25.948V20.2974H21.4918V18.3188ZM17.0356 4.4684H21.4918V6.44702H17.0356V4.4684ZM17.0356 8.42565H21.4918V10.4043H17.0356V8.42565ZM17.0356 12.3829H21.4918V14.3615H17.0356V12.3829ZM17.0356 16.3402H21.4918V18.3188H17.0356V16.3402ZM13.1055 42.524L10.9185 48.5093L5.40994 39.1603L12.8096 41.8809C12.974 41.9469 13.0562 42.0458 13.0891 42.1447C13.122 42.2272 13.1549 42.3591 13.1055 42.524ZM39.7113 48.229C39.7113 49.5976 38.6096 50.7023 37.2447 50.7023H13.6153L16.1805 43.6617C16.5258 42.7053 16.4765 41.6831 16.0654 40.7597C15.6379 39.8363 14.8815 39.1438 13.9277 38.7976L3.28872 34.8898V5.77099C3.28872 4.40244 4.39044 3.29771 5.75526 3.29771H15.9832V21.4516H27.0004V3.29771H37.2283C38.5931 3.29771 39.6948 4.40244 39.6948 5.77099L39.7113 48.229Z" fill="#DC1D1D"/>
<path d="M25.9481 23.3148H17.0521C16.0326 26.8434 14.7665 31.048 14.7665 31.048C14.7665 31.048 14.6021 32.0538 14.6021 32.5814C14.6021 36.4067 17.6934 39.5066 21.5084 39.5066C25.3233 39.5066 28.4147 36.4067 28.4147 32.5814C28.4147 32.0538 28.3489 31.5426 28.2502 31.048C28.2338 31.048 26.9676 26.8434 25.9481 23.3148ZM21.4919 36.7695C19.1898 36.7695 17.3152 34.8898 17.3152 32.5814C17.3152 30.273 19.1898 28.3933 21.4919 28.3933C23.794 28.3933 25.6686 30.273 25.6686 32.5814C25.6686 34.8898 23.8105 36.7695 21.4919 36.7695Z" fill="#DC1D1D"/>
</g>
<defs>
<clipPath id="clip0_45_195">
<rect width="43" height="54" fill="white"/>
</clipPath>
</defs>
</svg>
