<svg width="84" height="136" viewBox="0 0 84 136" fill="none" xmlns="http://www.w3.org/2000/svg">
<path d="M82.0952 70.1874C82.0952 92.442 64.1905 110.512 42.0952 110.512C20 110.512 2.09521 92.442 2.09521 70.1874C2.09521 47.9329 42.0952 2.85315 42.0952 2.85315C42.0952 2.85315 82.0952 47.9329 82.0952 70.1874Z" stroke="white" stroke-width="2.04" stroke-miterlimit="10"/>
<path d="M18.0953 89.0182C14.0953 83.8825 11.6191 77.2252 11.6191 70.1874C11.6191 59.3455 27.2382 35.9496 41.5239 18.4503" stroke="white" stroke-width="2.04" stroke-miterlimit="10"/>
<path d="M29.9048 98.3384C26.8572 97.007 24.1905 95.2951 21.7144 93.0126" stroke="white" stroke-width="2.04" stroke-miterlimit="10"/>
<path d="M40.1904 52.4979V134.859" stroke="white" stroke-width="2.04" stroke-miterlimit="10"/>
<path d="M41.1428 63.7203L57.3333 53.8293" stroke="white" stroke-width="2.04" stroke-miterlimit="10"/>
<path d="M41.1428 78.1762L57.3333 68.2853" stroke="white" stroke-width="2.04" stroke-miterlimit="10"/>
<path d="M41.1428 92.8224L57.3333 82.9315" stroke="white" stroke-width="2.04" stroke-miterlimit="10"/>
<path d="M30.6667 134.098H48.9525" stroke="white" stroke-width="2.04" stroke-miterlimit="10"/>
</svg>
