<svg width="104" height="84" viewBox="0 0 104 84" fill="none" xmlns="http://www.w3.org/2000/svg">
<path d="M73.6717 44.6566C73.6717 57.9398 62.9305 68.8193 49.7884 68.8193C36.5199 68.8193 25.905 58.0663 25.905 44.6566C25.905 31.3735 49.7884 4.42773 49.7884 4.42773C49.7884 4.42773 73.6717 31.247 73.6717 44.6566Z" stroke="white" stroke-width="1.8362" stroke-miterlimit="10"/>
<path d="M35.509 55.9157C33.1081 52.753 31.718 48.8313 31.718 44.6566C31.718 38.2048 41.0692 24.1627 49.5358 13.6627" stroke="white" stroke-width="1.8362" stroke-miterlimit="10"/>
<path d="M42.5854 61.3555C40.8163 60.5964 39.1735 59.4579 37.7834 58.1928" stroke="white" stroke-width="1.8362" stroke-miterlimit="10"/>
<path d="M48.7773 34.0302V83.241" stroke="white" stroke-width="1.8362" stroke-miterlimit="10"/>
<path d="M49.283 40.735L58.8868 34.7892" stroke="white" stroke-width="1.8362" stroke-miterlimit="10"/>
<path d="M49.283 49.4639L58.8868 43.5181" stroke="white" stroke-width="1.8362" stroke-miterlimit="10"/>
<path d="M49.283 58.0663L58.8868 52.1205" stroke="white" stroke-width="1.8362" stroke-miterlimit="10"/>
<path d="M42.9646 82.8615H53.9585" stroke="white" stroke-width="1.8362" stroke-miterlimit="10"/>
<path d="M81.8857 42.1265L90.7314 36.6868" stroke="white" stroke-width="1.8362" stroke-miterlimit="10"/>
<path d="M81.8857 50.8555L90.7314 45.4157" stroke="white" stroke-width="1.8362" stroke-miterlimit="10"/>
<path d="M16.6804 63.506V71.9819" stroke="white" stroke-width="1.8362" stroke-miterlimit="10"/>
<path d="M10.8674 71.6024H21.8614" stroke="white" stroke-width="1.8362" stroke-miterlimit="10"/>
<path d="M82.1384 34.2831V71.9819" stroke="white" stroke-width="1.8362" stroke-miterlimit="10"/>
<path d="M76.4519 71.6024H87.3195" stroke="white" stroke-width="1.8362" stroke-miterlimit="10"/>
<path d="M30.2016 59.4578C27.6743 61.7349 24.3887 63.1265 20.8505 63.1265H15.0376C7.32919 63.1265 1.13721 56.8012 1.13721 49.2108V15.0542C1.13721 7.33734 7.45555 1.13855 15.0376 1.13855H20.8505C28.5588 1.13855 34.7508 7.46385 34.7508 15.0542V23.5301" stroke="white" stroke-width="1.8362" stroke-miterlimit="10"/>
<path d="M15.0377 57.3072C10.6148 57.3072 6.9502 53.6386 6.9502 49.2108V15.0542C6.9502 12.7771 7.83476 10.753 9.35117 9.36145" stroke="white" stroke-width="1.8362" stroke-miterlimit="10"/>
<path d="M9.35107 9.36144C10.8675 7.84337 12.8893 6.95782 15.0376 6.95782" stroke="white" stroke-width="1.8362" stroke-miterlimit="10"/>
<path d="M70.6392 56.9277L82.1385 63.253L102.863 51.3614V27.7048L82.1385 15.8132L65.5845 25.4277" stroke="white" stroke-width="1.8362" stroke-miterlimit="10"/>
</svg>
