<svg width="76" height="76" viewBox="0 0 76 76" fill="none" xmlns="http://www.w3.org/2000/svg">
<path d="M37.6898 36.5295V60.057" stroke="white" stroke-width="2.1725" stroke-miterlimit="10"/>
<path d="M15.5101 74.2973H57.853C57.853 73.9878 57.853 73.833 57.853 73.5234C57.853 66.558 52.2693 60.9857 45.2897 60.9857C43.4285 60.9857 41.5673 61.4501 40.0163 62.224C37.2244 59.7475 33.6571 58.1996 29.6244 58.1996C23.2652 58.1996 17.8367 62.0692 15.5101 67.6415V74.2973V74.2973Z" stroke="white" stroke-width="2.1725" stroke-miterlimit="10"/>
<path d="M17.2163 17.1813L37.5347 37.4583" stroke="white" stroke-width="2.1725" stroke-miterlimit="10"/>
<path d="M8.8408 24.1466C14.8898 30.1833 23.1102 32.3503 30.8653 30.8024C32.4163 23.0631 30.0898 14.8595 24.1959 8.82281C18.1469 2.78615 9.92651 0.619147 2.17141 2.16701C0.62039 9.90632 2.79182 18.11 8.8408 24.1466Z" stroke="white" stroke-width="2.1725" stroke-miterlimit="10"/>
<path d="M58.7837 17.1813L38.4653 37.4583" stroke="white" stroke-width="2.1725" stroke-miterlimit="10"/>
<path d="M67.1592 24.1466C61.1102 30.1833 52.8898 32.3503 45.1347 30.8024C43.5837 23.0631 45.9102 14.8595 51.8041 8.82281C57.8531 2.78615 66.0735 0.619147 73.8286 2.16701C75.2245 9.90632 73.0531 18.11 67.1592 24.1466Z" stroke="white" stroke-width="2.1725" stroke-miterlimit="10"/>
</svg>
